Coordinates
version=1
nRows=6
nColumns=38
inDegrees=yes

Units are S.I. units (second, meters, Newtons, ...)
If the header above contains a line with 'inDegrees', this indicates whether rotational values are in degrees (yes) or radians (no).

endheader
time	pelvis_tilt	pelvis_list	pelvis_rotation	pelvis_tx	pelvis_ty	pelvis_tz	hip_flexion_r	hip_adduction_r	hip_rotation_r	knee_angle_r	ankle_angle_r	subtalar_angle_r	mtp_angle_r	hip_flexion_l	hip_adduction_l	hip_rotation_l	knee_angle_l	ankle_angle_l	subtalar_angle_l	mtp_angle_l	lumbar_extension	lumbar_bending	lumbar_rotation	arm_flex_r	arm_add_r	arm_rot_r	elbow_flex_r	pro_sup_r	wrist_flex_r	wrist_dev_r	arm_flex_l	arm_add_l	arm_rot_l	elbow_flex_l	pro_sup_l	wrist_flex_l	wrist_dev_l
      0.64800000	     -0.65407937	      6.20639688	     20.03750052	      0.14755724	      0.96831416	      0.19041733	     35.94141547	    -20.88689762	    -13.49295790	   -146.68571366	     -6.29719484	      0.94163531	     25.54466278	      0.39621193	      6.02430504	      4.01025228	    -40.58741121	     30.54761352	     20.29722672	      5.29726844	    -21.21297695	     -2.57277715	    -21.01612931	    -30.26538924	    -20.22149175	     10.04465634	     38.31407489	    138.94196783	      0.00000000	      0.00000000	     22.96322727	    -28.03132843	     20.34659152	     81.65625193	    146.99344040	      0.00000000	      0.00000000
      0.65200000	      1.52423468	      4.00438814	     17.99562861	      0.18753150	      0.97037442	      0.19293603	     37.80574947	    -17.16627511	    -12.93392476	   -144.88180943	     -4.45043039	      1.55979963	     36.59997636	     -4.75602148	      1.83518849	      1.99907935	    -37.73203103	     29.65058886	     21.88589214	      9.27351082	    -22.33170561	     -0.05513152	    -18.54198764	    -33.39990009	    -21.20520926	      9.96597277	     39.29768660	    137.53494340	      0.00000000	      0.00000000	     25.83303836	    -26.74781117	     19.57345174	     83.25785345	    147.60585923	      0.00000000	      0.00000000
      0.65600000	     -0.11889769	      1.57368856	     19.13893117	      0.22886270	      0.96715505	      0.19139205	     42.48194974	    -16.57010560	    -14.18091494	   -143.03981510	     -3.50829438	      2.49610642	     37.26118081	     -5.59212359	     -1.30763373	      2.91351448	    -35.80901130	     28.05155966	     23.57380666	     11.12891936	    -18.92101870	      2.32569781	    -19.62442191	    -37.15089762	    -22.14106552	      9.87058479	     39.86477046	    136.79787817	      0.00000000	      0.00000000	     26.58950573	    -25.21972666	     17.25727522	     85.38745454	    147.89074688	      0.00000000	      0.00000000
      0.66000000	     -0.05735195	     -0.64247562	     17.99720191	      0.26943218	      0.96615964	      0.19285666	     46.13491103	    -14.09961627	    -14.36618659	   -141.02729171	     -2.81129739	      2.06177563	     35.45156241	     -8.71863840	     -4.52839333	      1.48432738	    -33.07411182	     25.00487713	     25.06925986	     14.94923376	    -17.76062858	      4.38343985	    -18.45526485	    -40.82982123	    -23.40795792	     10.34888911	     41.16914765	    135.64827498	      0.00000000	      0.00000000	     28.30081060	    -23.83400870	     15.38238624	     87.64737464	    148.39429738	      0.00000000	      0.00000000
      0.66400000	     -1.41064358	     -2.99427441	     17.66512746	      0.31070552	      0.96341904	      0.19258907	     50.78383885	    -13.00088121	    -15.10462914	   -138.94562287	     -2.03312400	      2.05225186	     25.41006911	    -10.49806907	     -7.25575527	      1.16340437	    -29.93984894	     21.19450357	     25.18499162	     22.49083265	    -14.76165616	      6.51230436	    -18.37206845	    -45.08974058	    -24.45457123	      9.77687229	     42.75361921	    133.46370847	      0.00000000	      0.00000000	     29.27793532	    -22.44709424	     13.59681706	     89.64361463	    149.61199915	      0.00000000	      0.00000000
      0.66800000	     -2.18003078	     -4.82052300	     16.32830273	      0.35222441	      0.96121298	      0.19434355	     54.98521419	    -10.65280755	    -14.87969637	   -136.66644518	     -1.78707949	      1.91629670	     25.71008629	    -13.49940668	     -9.46470346	     -0.46333974	    -26.24329298	     16.76924420	     26.05485957	     24.92806872	    -12.84346660	      8.06088100	    -17.59293327	    -49.27191259	    -25.25002489	      8.42368290	     44.52724844	    132.62236139	      0.00000000	      0.00000000	     30.27433662	    -21.56780836	     11.72612145	     92.59189454	    150.10967947	      0.00000000	      0.00000000
